<mxfile host="app.diagrams.net" agent="Mozilla/5.0 (Windows NT 10.0; Win64; x64) AppleWebKit/537.36 (KHTML, like Gecko) Chrome/130.0.0.0 Safari/537.36 Edg/130.0.0.0" version="24.8.4">
  <diagram name="第 1 页" id="HuRX4ZUr7mlgv9a4Pmu_">
    <mxGraphModel dx="574" dy="318" grid="1" gridSize="10" guides="1" tooltips="1" connect="1" arrows="1" fold="1" page="1" pageScale="1" pageWidth="827" pageHeight="1169" math="0" shadow="0">
      <root>
        <mxCell id="0" />
        <mxCell id="1" parent="0" />
        <mxCell id="kbtzfBk0J4lA9IpavELv-2" value="CPU" style="rounded=0;whiteSpace=wrap;html=1;" vertex="1" parent="1">
          <mxGeometry x="310" y="550" width="230" height="60" as="geometry" />
        </mxCell>
        <mxCell id="kbtzfBk0J4lA9IpavELv-3" value="&lt;font style=&quot;font-size: 8px;&quot;&gt;spin_lock&lt;/font&gt;&lt;div style=&quot;&quot;&gt;1.如果是可抢占内核，&lt;/div&gt;&lt;div style=&quot;font-size: 8px;&quot;&gt;那么spin_lock会关掉当前CPU的&lt;span style=&quot;background-color: initial;&quot;&gt;抢占，spin_lock释放后&lt;/span&gt;&lt;span style=&quot;background-color: initial;&quot;&gt;马上可以进行抢占；&lt;/span&gt;&lt;/div&gt;&lt;div style=&quot;font-size: 8px;&quot;&gt;2.如果是不可抢占内核，&lt;/div&gt;&lt;div style=&quot;font-size: 8px;&quot;&gt;spin_lock什么也不做&lt;/div&gt;" style="rounded=1;whiteSpace=wrap;html=1;fontSize=8;align=left;" vertex="1" parent="1">
          <mxGeometry x="310" y="450" width="100" height="80" as="geometry" />
        </mxCell>
        <mxCell id="kbtzfBk0J4lA9IpavELv-4" value="" style="endArrow=classic;html=1;rounded=0;entryX=0.5;entryY=0;entryDx=0;entryDy=0;" edge="1" parent="1" target="kbtzfBk0J4lA9IpavELv-3">
          <mxGeometry width="50" height="50" relative="1" as="geometry">
            <mxPoint x="360" y="420" as="sourcePoint" />
            <mxPoint x="400" y="520" as="targetPoint" />
          </mxGeometry>
        </mxCell>
        <mxCell id="kbtzfBk0J4lA9IpavELv-8" style="edgeStyle=orthogonalEdgeStyle;rounded=0;orthogonalLoop=1;jettySize=auto;html=1;exitX=0.5;exitY=1;exitDx=0;exitDy=0;entryX=0.219;entryY=-0.005;entryDx=0;entryDy=0;entryPerimeter=0;" edge="1" parent="1" source="kbtzfBk0J4lA9IpavELv-3" target="kbtzfBk0J4lA9IpavELv-2">
          <mxGeometry relative="1" as="geometry" />
        </mxCell>
        <mxCell id="kbtzfBk0J4lA9IpavELv-9" value="中断" style="rounded=1;whiteSpace=wrap;html=1;" vertex="1" parent="1">
          <mxGeometry x="440" y="450" width="100" height="50" as="geometry" />
        </mxCell>
        <mxCell id="kbtzfBk0J4lA9IpavELv-11" style="edgeStyle=orthogonalEdgeStyle;rounded=0;orthogonalLoop=1;jettySize=auto;html=1;exitX=0.5;exitY=1;exitDx=0;exitDy=0;entryX=0.219;entryY=-0.005;entryDx=0;entryDy=0;entryPerimeter=0;" edge="1" parent="1">
          <mxGeometry relative="1" as="geometry">
            <mxPoint x="489.81" y="500.3" as="sourcePoint" />
            <mxPoint x="489.81" y="550.3" as="targetPoint" />
          </mxGeometry>
        </mxCell>
        <mxCell id="kbtzfBk0J4lA9IpavELv-12" value="" style="endArrow=classic;html=1;rounded=0;" edge="1" parent="1">
          <mxGeometry width="50" height="50" relative="1" as="geometry">
            <mxPoint x="489.86" y="420" as="sourcePoint" />
            <mxPoint x="490" y="450" as="targetPoint" />
          </mxGeometry>
        </mxCell>
        <mxCell id="kbtzfBk0J4lA9IpavELv-13" value="中断上下文" style="text;html=1;align=center;verticalAlign=middle;whiteSpace=wrap;rounded=0;" vertex="1" parent="1">
          <mxGeometry x="450" y="390" width="80" height="30" as="geometry" />
        </mxCell>
        <mxCell id="kbtzfBk0J4lA9IpavELv-14" value="进程上下文" style="text;html=1;align=center;verticalAlign=middle;whiteSpace=wrap;rounded=0;" vertex="1" parent="1">
          <mxGeometry x="320" y="390" width="80" height="30" as="geometry" />
        </mxCell>
        <mxCell id="kbtzfBk0J4lA9IpavELv-15" value="" style="endArrow=classic;html=1;rounded=0;" edge="1" parent="1">
          <mxGeometry width="50" height="50" relative="1" as="geometry">
            <mxPoint x="380" y="420" as="sourcePoint" />
            <mxPoint x="380" y="450" as="targetPoint" />
          </mxGeometry>
        </mxCell>
        <mxCell id="kbtzfBk0J4lA9IpavELv-16" value="" style="endArrow=classic;html=1;rounded=0;" edge="1" parent="1">
          <mxGeometry width="50" height="50" relative="1" as="geometry">
            <mxPoint x="340" y="420" as="sourcePoint" />
            <mxPoint x="340" y="450" as="targetPoint" />
          </mxGeometry>
        </mxCell>
        <mxCell id="kbtzfBk0J4lA9IpavELv-17" value="自旋锁作用域仅仅在单个CPU之内，多个CPU之&lt;div&gt;间可以认为有多个不同的自旋锁副本&lt;/div&gt;" style="text;html=1;align=center;verticalAlign=middle;whiteSpace=wrap;rounded=0;" vertex="1" parent="1">
          <mxGeometry x="195" y="620" width="460" height="30" as="geometry" />
        </mxCell>
      </root>
    </mxGraphModel>
  </diagram>
</mxfile>
